<?xml version="1.0" encoding="UTF-8"?>
<svg width="17px" height="17px" viewBox="0 0 17 17" version="1.1" xmlns="http://www.w3.org/2000/svg" xmlns:xlink="http://www.w3.org/1999/xlink">
    <title>D3A79675-8B25-4B77-AA02-836FB6422125@1.5x</title>
    <g id="groupletters" stroke="none" stroke-width="1" fill="none" fill-rule="evenodd" opacity="0.900000036" stroke-linecap="round" stroke-linejoin="round">
        <g id="מסך-ראשי---מדידת-נהיגה-copy-3" transform="translate(-34.000000, -534.000000)" stroke="#132D42">
            <g id="Down-menu" transform="translate(0.000000, 504.000000)">
                <g id="Group-5" transform="translate(25.283356, 30.564598)">
                    <g id="contact-icon-2-copy" transform="translate(9.282299, 0.000000)">
                        <path d="M4.15948732,5.00490788 L5.43525082,3.72914438 C5.89099732,3.27339788 5.89099732,2.53451138 5.43525082,2.07876488 L3.69829582,0.341809875 C3.24254932,-0.113936625 2.50366282,-0.113936625 2.04791632,0.341809875 L0.483567821,1.90615838" id="Path"></path>
                        <path d="M0.483567821,1.90615838 C-0.929954179,3.31968038 0.860361821,7.39744088 4.48618732,11.0232664" id="Path"></path>
                        <path d="M4.15948732,5.00490788 C3.62533282,5.53906238 4.59563182,7.37348288 6.32877532,9.10662638" id="Path" stroke-width="0.9"></path>
                        <path d="M10.4304938,11.2759144 L11.7062573,10.0001509 C12.1620038,9.54440438 12.9008903,9.54440438 13.3566368,10.0001509 L15.0935918,11.7371059 C15.5493383,12.1928524 15.5493383,12.9317389 15.0935918,13.3874854 L13.5286988,14.9523784" id="Path"></path>
                        <path d="M13.5292433,14.9518339 C12.1157213,16.3653559 8.03796082,14.5750399 4.41213532,10.9492144" id="Path"></path>
                        <path d="M10.4304938,11.2759144 C9.89633932,11.8100689 8.06191882,10.8397699 6.32877532,9.10662638" id="Path"></path>
                    </g>
                </g>
            </g>
        </g>
    </g>
</svg>